<?xml version="1.0" encoding="UTF-8"?>
<svg id="Capa_2" data-name="Capa 2" xmlns="http://www.w3.org/2000/svg" xmlns:xlink="http://www.w3.org/1999/xlink" viewBox="0 0 32 32">
  <defs>
    <style>
      .cls-1 {
        fill: #afe3ff;
      }

      .cls-2 {
        fill: #53abff;
      }

      .cls-3 {
        fill: url(#Degradado_sin_nombre_31);
      }

      .cls-4 {
        fill: url(#Degradado_sin_nombre_39);
      }

      .cls-5 {
        fill: none;
        stroke: #1d1d1b;
        stroke-miterlimit: 10;
      }

      .cls-6 {
        fill: #fff;
        opacity: .95;
      }
    </style>
    <linearGradient id="Degradado_sin_nombre_31" data-name="Degradado sin nombre 31" x1="16.19" y1="34.64" x2="15.71" y2="-12.79" gradientUnits="userSpaceOnUse">
      <stop offset=".06" stop-color="#0060ff"/>
      <stop offset=".5" stop-color="#0d0772"/>
    </linearGradient>
    <linearGradient id="Degradado_sin_nombre_39" data-name="Degradado sin nombre 39" x1="16.95" y1="29.87" x2="27.69" y2="2.89" gradientUnits="userSpaceOnUse">
      <stop offset=".06" stop-color="#fff"/>
      <stop offset=".48" stop-color="#3bc4c4"/>
      <stop offset=".82" stop-color="#289e9b"/>
    </linearGradient>
  </defs>
  <g id="Texto">
    <g>
      <circle class="cls-3" cx="16" cy="16" r="16"/>
      <path class="cls-5" d="M28.08,3.3v.03s-.01-.01-.02-.02c0,0,.01,0,.02-.01Z"/>
      <path class="cls-5" d="M7.29,24.61c-.06,.03-.12,.06-.18,.09,.06-.03,.12-.06,.18-.09Z"/>
      <path class="cls-5" d="M28.08,3.3v.03s-.01-.01-.02-.02c0,0,.01,0,.02-.01Z"/>
      <g>
        <g>
          <path class="cls-4" d="M22.57,22.23h0c-.22-.54-.22-.94-.25-1.35-.06-.78-.76-.89-.89-.89-.45,0-.82,.33-.88,.76,0,0,0,0,0,0-.26,1.83-1.84,3.24-3.74,3.24-1.24,0-2.34-.6-3.03-1.51,0,0,0,0,0,0-.02-.03-.04-.07-.06-.1-.02-.03-.04-.06-.06-.08,0,0,0,0,0,0-.27-.32-.66-.52-1.11-.52-.35,0-.66,.12-.91,.33h0c.51-.36,1-.73,1.48-1.1,.2-.16,.41-.32,.61-.49,.51-.42,1.01-.86,1.5-1.31,.89-.83,1.74-1.71,2.53-2.64,1.76-2.05,3.25-4.33,4.45-6.78,.37-.76,.71-1.53,1.02-2.31,3.88,4.39,5.51,10.18,4.75,15.75h0c-.08,.55-.36,1.04-.75,1.4-.02,.02-.03,.03-.05,.04-.41,.34-.93,.55-1.5,.55-.71,0-1.34-.31-1.76-.81,0,0,0,0,0,0,0,0-.62-.61-1.31-2.16Z"/>
          <path class="cls-1" d="M27.02,24.78c-.55,.39-.81,.44-1.41,.44-.7,0-1.34-.31-1.76-.81,0,0,0,0,0,0-.08-.1-.15-.2-.22-.3,0,0,0,0,0,0-.41-.58-.78-1.2-1.08-1.85h0c.16-.52,.29-1.05,.4-1.58,.77-3.64,.48-7.42-.78-10.87,.37-.76,.74-1.54,1.05-2.33,3.94,4.46,5.59,10.18,4.74,15.83-.01,.08-.17,.62-.25,.72-.18,.25-.44,.59-.69,.75Z"/>
        </g>
        <g>
          <path class="cls-6" d="M23.47,6.35c0-1.29-1.05-2.33-2.33-2.33-.23,0-.46,.03-.67,.1-.02,0-.04,.01-.06,.02,.05-.15,.08-.31,.08-.47,0-.62-.39-1.15-.94-1.35-.16-.06-.33-.09-.51-.09-.28,0-.54,.08-.76,.22-.17,.1-.31,.24-.43,.41-.74-.77-1.56-1.49-2.44-2.14-.01-.01-.03-.02-.04-.03,0,0,0,0,0,0-.14-.1-.31-.15-.5-.15-.49,0-.89,.4-.89,.89,0,.05,0,.09,.01,.14,.02,.11,.02,.22,.02,.33,0,1.16-.85,2.12-1.96,2.3h0c-.72,.08-1.28,.69-1.28,1.43,0,.12,.01,.23,.04,.35h0c.01,.08,.02,.17,.02,.25,0,.54-.29,1-.73,1.25v.05c-.06,0-.12,.02-.18,.04-.04,.01-.08,.03-.11,.04-.54,.21-.93,.73-.93,1.35,0,.42,.18,.8,.47,1.06,.04,.03,.07,.07,.11,.1,.02,.02,.04,.03,.07,.05,.35,.26,.58,.68,.58,1.16,0,.65-.43,1.2-1.01,1.38,0,0,0,0,0,0-.83,.28-1.45,1.01-1.56,1.9-.69,.27-1.23,.87-1.41,1.6-.02,0-.04,.02-.06,.03-.28,.86-.49,1.74-.64,2.63h0s0,.05-.01,.07c-.37,.26-.61,.69-.61,1.18,0,.37,.14,.71,.37,.96h0c.32,.14,.54,.46,.54,.82,0,.21-.07,.4-.19,.56,0,.01-.02,.02-.03,.03-.2,.25-.32,.56-.32,.91,0,.8,.65,1.44,1.44,1.44,.19,0,.36-.04,.53-.1,0,0,0,0,0,0,.06-.03,.12-.06,.18-.09,0,0,0,0,0,0,1.51-.73,2.96-1.57,4.33-2.52,.51-.35,1-.71,1.48-1.09,.2-.16,.41-.32,.61-.49,.51-.42,1.01-.86,1.5-1.31,.89-.83,1.74-1.71,2.53-2.64,1.76-2.05,3.25-4.33,4.45-6.78,.37-.76,.71-1.53,1.02-2.31,0,0-.01-.01-.02-.02,.17-.33,.27-.7,.27-1.1Zm-5.19-3.06s-.01-.01-.02-.02c0,0,.01,0,.02-.01v.03Z"/>
          <path class="cls-2" d="M20.49,3.63c0,.17-.03,.33-.08,.48-.04,.12-.1,.23-.17,.33-.15,.23-.31,.46-.47,.68-.31,.44-.63,.87-.96,1.3-2.08,2.65-4.55,4.94-7.31,6.8-.71,.48-1.44,.93-2.19,1.35-.56,.32-1.14,.62-1.72,.9-.48,.24-.98,.46-1.47,.67,.18-.73,.72-1.33,1.41-1.6,.12-.89,.74-1.62,1.56-1.9,0,0,0,0,0,0,.59-.18,1.01-.73,1.01-1.38,0-.48-.23-.9-.59-1.16-.02-.01-.03-.02-.05-.03-.04-.03-.08-.07-.12-.1-.29-.26-.47-.64-.47-1.06,0-.62,.39-1.14,.93-1.35,.03-.01,.07-.02,.1-.03,.06-.02,.13-.03,.19-.04v-.02c.51-.18,1.01-.36,1.51-.57,.14-.06,.29-.12,.43-.18,.52-.22,1.03-.45,1.54-.69,.07-.03,.14-.07,.21-.1,1.31-.64,2.59-1.38,3.81-2.21,0-.03,0-.05,0-.08,0-.3,.09-.59,.26-.82,.11-.16,.26-.3,.43-.41,.22-.14,.48-.22,.76-.22,.18,0,.35,.03,.51,.09,.55,.21,.93,.73,.93,1.35Z"/>
        </g>
      </g>
    </g>
  </g>
</svg>