<?xml version="1.0" encoding="UTF-8"?>
<svg id="Capa_2" data-name="Capa 2" xmlns="http://www.w3.org/2000/svg" xmlns:xlink="http://www.w3.org/1999/xlink" viewBox="0 0 300 117.98">
  <defs>
    <style>
      .cls-1, .cls-2 {
        fill: none;
      }

      .cls-3 {
        fill: #0060ff;
      }

      .cls-4 {
        fill: #afe3ff;
      }

      .cls-5 {
        fill: #53abff;
      }

      .cls-6 {
        fill: url(#Degradado_sin_nombre_31);
      }

      .cls-7 {
        fill: url(#Degradado_sin_nombre_39);
      }

      .cls-2 {
        stroke: #1d1d1b;
        stroke-miterlimit: 10;
      }

      .cls-8 {
        fill: #fff;
        opacity: .95;
      }
    </style>
    <linearGradient id="Degradado_sin_nombre_31" data-name="Degradado sin nombre 31" x1="59.96" y1="103.94" x2="58.81" y2="-10.42" gradientUnits="userSpaceOnUse">
      <stop offset=".06" stop-color="#0060ff"/>
      <stop offset=".5" stop-color="#0d0772"/>
    </linearGradient>
    <linearGradient id="Degradado_sin_nombre_39" data-name="Degradado sin nombre 39" x1="61.79" y1="92.43" x2="87.7" y2="27.38" gradientUnits="userSpaceOnUse">
      <stop offset=".06" stop-color="#fff"/>
      <stop offset=".48" stop-color="#3bc4c4"/>
      <stop offset=".82" stop-color="#289e9b"/>
    </linearGradient>
  </defs>
  <g id="Capa_5" data-name="Capa 5">
    <g>
      <g>
        <circle class="cls-6" cx="59.51" cy="58.99" r="38.58"/>
        <path class="cls-2" d="M88.65,28.37v.08s-.03-.03-.04-.05c.01-.01,.03-.02,.04-.03Z"/>
        <path class="cls-2" d="M38.5,79.76c-.14,.08-.28,.15-.43,.2,.14-.07,.29-.14,.43-.2Z"/>
        <path class="cls-2" d="M88.65,28.37v.08s-.03-.03-.04-.05c.01-.01,.03-.02,.04-.03Z"/>
        <g>
          <g>
            <path class="cls-7" d="M75.35,74.02h0c-.52-1.31-.54-2.26-.61-3.25-.13-1.89-1.84-2.15-2.15-2.15-1.08,0-1.97,.79-2.13,1.82,0,0,0,0,0,0-.62,4.42-4.42,7.82-9.02,7.82-2.98,0-5.63-1.44-7.29-3.65,0,0,0,0,0,0-.05-.08-.1-.16-.15-.24-.05-.07-.1-.13-.15-.2,0,0,0,0,0,0-.64-.77-1.6-1.26-2.68-1.26-.84,0-1.6,.3-2.2,.79v-.03c1.22-.84,2.41-1.72,3.58-2.63,.49-.38,.98-.77,1.46-1.17,1.24-1.01,2.44-2.07,3.61-3.16,2.16-2.01,4.2-4.13,6.11-6.37,4.23-4.95,7.85-10.43,10.73-16.35,.89-1.82,1.71-3.68,2.45-5.58,9.36,10.59,13.29,24.55,11.46,37.98h-.02c-.2,1.33-.86,2.51-1.82,3.37-.04,.04-.08,.07-.12,.11-.98,.83-2.24,1.32-3.63,1.32-1.7,0-3.22-.75-4.26-1.94,0,0,0,0-.01-.01,0,0-1.5-1.47-3.15-5.21Z"/>
            <path class="cls-4" d="M86.07,80.15c-1.33,.93-1.95,1.06-3.39,1.06-1.7,0-3.22-.75-4.25-1.94,0,0,0-.01-.01-.01-.18-.24-.36-.49-.54-.73,0,0,0-.01-.01-.02-1-1.41-1.87-2.9-2.6-4.46h0c.38-1.26,.7-2.54,.97-3.82,1.85-8.79,1.16-17.89-1.88-26.22,.89-1.82,1.79-3.71,2.54-5.61,9.5,10.76,13.47,24.55,11.43,38.18-.03,.2-.42,1.5-.6,1.75-.43,.6-1.06,1.41-1.66,1.82Z"/>
          </g>
          <g>
            <path class="cls-8" d="M77.51,35.71c0-3.11-2.52-5.63-5.63-5.63-.56,0-1.1,.08-1.61,.24-.05,.02-.1,.03-.15,.05,.12-.36,.19-.74,.19-1.15,0-1.49-.94-2.76-2.26-3.26-.38-.14-.79-.22-1.22-.22-.67,0-1.3,.19-1.83,.52-.41,.25-.76,.59-1.03,.98-1.79-1.85-3.76-3.58-5.9-5.17-.04-.03-.07-.05-.11-.08,0,0-.01,0-.02-.01-.34-.23-.76-.37-1.2-.37-1.19,0-2.15,.96-2.15,2.15,0,.11,0,.22,.02,.33,.04,.26,.06,.52,.06,.79,0,2.8-2.04,5.12-4.72,5.56h0c-1.73,.2-3.08,1.67-3.08,3.46,0,.29,.03,.57,.1,.83h0c.04,.2,.05,.4,.05,.61,0,1.29-.71,2.42-1.75,3.02v.13c-.15,.02-.3,.05-.44,.1-.09,.03-.18,.06-.28,.09-1.31,.5-2.24,1.77-2.24,3.25,0,1.01,.43,1.92,1.12,2.56,.09,.08,.18,.16,.28,.23,.05,.04,.1,.08,.16,.11,.85,.63,1.4,1.65,1.4,2.79,0,1.56-1.03,2.88-2.44,3.32,0,0-.01,0-.02,0-1.99,.68-3.49,2.44-3.77,4.58-1.67,.66-2.96,2.1-3.4,3.87-.05,.02-.09,.04-.14,.06-.66,2.08-1.18,4.19-1.55,6.34h0c-.01,.06-.02,.12-.03,.17-.9,.62-1.48,1.67-1.48,2.85,0,.89,.34,1.71,.89,2.32h0c.77,.33,1.31,1.1,1.31,1.99,0,.51-.18,.97-.47,1.34-.02,.02-.04,.05-.06,.07-.48,.6-.77,1.36-.77,2.19,0,1.92,1.56,3.48,3.48,3.48,.45,0,.87-.08,1.27-.24,0,0,0,0,0,0,.14-.07,.29-.14,.43-.2,0,0,0,0,0,0,3.65-1.76,7.14-3.79,10.44-6.08,1.22-.84,2.41-1.72,3.58-2.63,.49-.38,.98-.77,1.46-1.17,1.24-1.01,2.44-2.07,3.61-3.16,2.16-2.01,4.2-4.13,6.11-6.37,4.23-4.95,7.85-10.43,10.73-16.35,.89-1.82,1.71-3.68,2.45-5.58-.01-.02-.03-.03-.04-.05,.42-.79,.66-1.69,.66-2.64Zm-12.51-7.37s-.03-.03-.04-.05c.01-.01,.03-.02,.04-.03v.08Z"/>
            <path class="cls-5" d="M70.34,29.17c0,.4-.07,.79-.19,1.15-.1,.29-.23,.55-.4,.8-.37,.55-.74,1.1-1.13,1.64-.75,1.06-1.53,2.11-2.33,3.13-5.01,6.39-10.97,11.91-17.63,16.4-1.72,1.16-3.48,2.25-5.29,3.27-1.36,.77-2.74,1.49-4.15,2.18-1.17,.57-2.35,1.11-3.55,1.62,.44-1.77,1.72-3.21,3.4-3.87,.29-2.14,1.78-3.9,3.77-4.58,0,0,.01,0,.02,0,1.41-.44,2.44-1.76,2.44-3.32,0-1.15-.56-2.17-1.42-2.81-.04-.03-.08-.05-.11-.08-.1-.08-.2-.16-.3-.25-.69-.63-1.12-1.55-1.12-2.56,0-1.49,.94-2.76,2.25-3.26,.08-.03,.16-.05,.24-.08,.15-.04,.31-.08,.46-.1v-.05c1.23-.42,2.45-.88,3.65-1.36,.34-.14,.69-.28,1.03-.42,1.25-.52,2.48-1.08,3.71-1.67,.17-.08,.34-.17,.51-.25,3.17-1.56,6.24-3.33,9.18-5.33,0-.06,0-.13,0-.19,0-.73,.23-1.42,.62-1.98,.27-.39,.62-.73,1.03-.98,.53-.33,1.16-.52,1.83-.52,.43,0,.84,.08,1.23,.22,1.32,.5,2.25,1.77,2.25,3.26Z"/>
          </g>
        </g>
      </g>
      <g>
        <path class="cls-3" d="M141.14,72.03c-1.17-.08-2.7-.11-4.59-.11s-3.36,.04-4.66,.11c0-.61,.08-1.16,.23-1.64,.97-.1,1.62-.32,1.95-.65,.33-.33,.5-.94,.5-1.83,0-.51-.04-1.15-.11-1.91l-1.38-13.11-7.91,19.11c-.43,.18-.96,.27-1.57,.27l-8.91-19.34-1.22,12.27c-.08,.76-.11,1.43-.11,1.99,0,1.17,.2,1.98,.59,2.43,.39,.45,1.06,.71,2.01,.78,.13,.43,.19,.98,.19,1.64-1.22-.08-2.59-.11-4.09-.11s-2.78,.04-3.82,.11c0-.66,.06-1.21,.19-1.64,.71-.08,1.26-.25,1.64-.54,.38-.28,.68-.8,.9-1.55,.22-.75,.4-1.9,.55-3.46l1.22-13.61c.03-.23,.04-.54,.04-.92,0-.99-.2-1.69-.61-2.1-.41-.41-1.07-.61-1.99-.61-.13-.41-.19-.96-.19-1.64,.76,.08,1.73,.11,2.91,.11,.94,0,1.91-.04,2.9-.11l9.56,21.14,8.33-21.14c.87,.08,1.86,.11,2.98,.11,.92,0,1.89-.04,2.91-.11,0,.61-.06,1.16-.19,1.64-.87,0-1.52,.22-1.97,.65-.45,.43-.67,1.18-.67,2.26,0,.41,.01,.73,.04,.96l1.38,14.03c.13,1.27,.29,2.25,.5,2.92,.2,.68,.48,1.15,.84,1.43,.36,.28,.84,.45,1.45,.5,.13,.43,.19,.99,.19,1.68Z"/>
        <path class="cls-3" d="M149.85,70.52c-1.91-1.16-3.4-2.75-4.45-4.78-1.06-2.03-1.59-4.3-1.59-6.82s.55-4.82,1.66-6.82c1.11-2,2.62-3.56,4.55-4.68,1.92-1.12,4.06-1.68,6.4-1.68s4.59,.55,6.52,1.66c1.92,1.11,3.43,2.66,4.51,4.66,1.08,2,1.62,4.29,1.62,6.86s-.54,4.76-1.62,6.78c-1.08,2.03-2.59,3.63-4.51,4.8-1.92,1.17-4.1,1.76-6.52,1.76s-4.66-.58-6.57-1.74Zm11.56-1.51c1.21-.92,2.13-2.17,2.77-3.76,.64-1.59,.96-3.37,.96-5.33,0-2.27-.41-4.34-1.24-6.23-.83-1.89-1.97-3.38-3.42-4.47-1.45-1.1-3.07-1.64-4.85-1.64-1.5,0-2.85,.43-4.05,1.3-1.2,.87-2.13,2.08-2.81,3.63-.68,1.55-1.01,3.35-1.01,5.39,0,2.19,.38,4.24,1.13,6.15,.75,1.91,1.84,3.45,3.27,4.61,1.43,1.16,3.11,1.74,5.05,1.74,1.61,0,3.01-.46,4.22-1.38Z"/>
        <path class="cls-3" d="M197.21,45.96c0,.64-.06,1.19-.19,1.64-.59,0-1.04,.17-1.36,.5-.32,.33-.55,.89-.69,1.66-.14,.78-.21,1.87-.21,3.27v18.88c-.41,.15-.96,.23-1.64,.23l-15.79-20.6v13.23c0,1.48,.08,2.61,.23,3.4,.15,.79,.42,1.36,.8,1.7,.38,.34,.92,.52,1.61,.52,.13,.38,.19,.93,.19,1.64-1.15-.08-2.41-.11-3.78-.11-1.58,0-2.85,.04-3.82,.11,0-.71,.06-1.26,.19-1.64,.69,0,1.22-.17,1.61-.52s.65-.91,.8-1.7c.15-.79,.23-1.92,.23-3.4v-15.79l-.15-.19c-.36-.43-.69-.73-1.01-.88-.32-.15-.81-.25-1.47-.31-.13-.46-.19-1.01-.19-1.64,.76,.08,1.71,.11,2.83,.11,1.02,0,1.87-.04,2.56-.11l14.87,19.72v-12.65c0-1.43-.08-2.52-.23-3.29-.15-.76-.42-1.31-.8-1.64-.38-.33-.92-.5-1.61-.5-.13-.74-.19-1.29-.19-1.64,1.1,.08,2.29,.11,3.59,.11,1.38,0,2.59-.04,3.63-.11Z"/>
        <path class="cls-3" d="M219.88,47.33c0,1.02,.09,2.6,.27,4.74-.54,.26-1.17,.37-1.91,.34-.05-1.53-.42-2.69-1.11-3.48-.69-.79-1.76-1.18-3.21-1.18h-2.03v19.3c0,.89,.08,1.56,.23,2.01,.15,.45,.44,.76,.86,.96s1.05,.31,1.89,.36c.13,.36,.19,.9,.19,1.64-1.63-.08-3.3-.11-5.01-.11-1.91,0-3.58,.04-5.01,.11,0-.74,.06-1.29,.19-1.64,.84-.05,1.48-.17,1.91-.36,.43-.19,.73-.52,.9-.97,.17-.46,.25-1.12,.25-1.99v-19.3h-1.95c-1.17,0-2.08,.19-2.71,.55-.64,.37-1.09,.87-1.36,1.49-.27,.62-.5,1.5-.71,2.62-.84,0-1.45-.11-1.83-.34,.41-2.29,.61-4.33,.61-6.12,1.43,.08,4.68,.11,9.75,.11s8.42-.04,9.82-.11l-.04,1.38Z"/>
        <path class="cls-3" d="M224.56,48.35c-.37-.45-1.06-.69-2.08-.75-.13-.36-.19-.9-.19-1.64,1.4,.08,2.94,.11,4.62,.11,1.55,0,3.1-.04,4.62-.11,0,.74-.06,1.29-.19,1.64-1.02,.05-1.71,.3-2.08,.75-.37,.45-.55,1.31-.55,2.58v16.13c0,1.27,.18,2.13,.55,2.58,.37,.45,1.06,.69,2.08,.75,.13,.36,.19,.9,.19,1.64-1.53-.08-3.07-.11-4.62-.11-1.78,0-3.33,.04-4.62,.11,0-.74,.06-1.29,.19-1.64,1.02-.05,1.71-.3,2.08-.75,.37-.45,.55-1.31,.55-2.58v-16.13c0-1.27-.19-2.13-.55-2.58Z"/>
        <path class="cls-3" d="M254.78,68.64c.46,.47,.99,.85,1.61,1.13,.61,.28,1.4,.45,2.37,.5,0,.64-.06,1.19-.19,1.64-2.55,0-4.57,.08-6.08,.23-1.02-1.68-2.56-3.83-4.62-6.46-2.06-2.62-3.94-4.7-5.62-6.23v7.61c0,1.27,.18,2.13,.55,2.58,.37,.45,1.06,.69,2.08,.75,.13,.36,.19,.9,.19,1.64-1.53-.08-3.07-.11-4.62-.11-1.78,0-3.33,.04-4.62,.11,0-.74,.06-1.29,.19-1.64,1.02-.05,1.71-.3,2.08-.75,.37-.45,.55-1.31,.55-2.58v-16.13c0-1.27-.19-2.13-.55-2.58-.37-.45-1.06-.69-2.08-.75-.13-.36-.19-.9-.19-1.64,1.4,.08,2.94,.11,4.62,.11,1.55,0,3.1-.04,4.62-.11,0,.74-.06,1.29-.19,1.64-1.02,.05-1.71,.3-2.08,.75-.37,.45-.55,1.31-.55,2.58v7.42l7.22-7.57c.94-.97,1.41-1.73,1.41-2.29s-.42-.85-1.26-.88c-.13-.41-.19-.96-.19-1.64,.84,.08,2.15,.11,3.94,.11,1.61,0,2.92-.04,3.94-.11,0,.74-.08,1.29-.23,1.64-.92,.05-1.76,.31-2.52,.76-.76,.46-1.73,1.31-2.91,2.56l-6.23,6.61c1.83,1.76,4.36,4.74,7.57,8.94,.74,.97,1.34,1.69,1.8,2.16Z"/>
        <path class="cls-3" d="M281,66.29c-.48,1.5-.88,3.4-1.18,5.7-1.99-.05-4.71-.08-8.18-.08-4.69,0-7.99,.04-9.9,.11,0-.74,.06-1.29,.19-1.64,.71-.05,1.25-.18,1.62-.38,.37-.2,.63-.56,.78-1.07,.15-.51,.23-1.27,.23-2.29v-15.71c0-1.27-.19-2.13-.55-2.58-.37-.45-1.06-.69-2.08-.75-.13-.36-.19-.9-.19-1.64,1.5,.08,3.64,.11,6.42,.11,4.64,0,8.22-.04,10.74-.11,.25,2.8,.52,4.82,.8,6.04-.38,.31-.96,.46-1.72,.46-.13-1.43-.64-2.59-1.55-3.5-.9-.9-2.48-1.36-4.72-1.36h-3.55v10.47h2.41c1.61,0,2.71-.21,3.31-.63,.6-.42,.91-1.24,.94-2.47,.61-.18,1.22-.27,1.83-.27-.05,.87-.08,2.26-.08,4.17,0,2.09,.03,3.57,.08,4.43-.69,0-1.27-.06-1.76-.19-.1-1.32-.45-2.22-1.05-2.69-.6-.47-1.69-.71-3.27-.71h-2.41v6.92c0,.97,.09,1.7,.27,2.2,.18,.5,.52,.85,1.01,1.05,.5,.2,1.23,.31,2.2,.31h.23c1.76,0,3.11-.18,4.05-.54,.94-.36,1.64-.85,2.08-1.49,.45-.64,.89-1.57,1.32-2.79,.74,.23,1.3,.54,1.68,.92Z"/>
      </g>
      <rect class="cls-1" width="300" height="117.98"/>
    </g>
  </g>
</svg>